<svg xmlns="http://www.w3.org/2000/svg" xmlns:xlink="http://www.w3.org/1999/xlink" width="1219.396" height="327.866" viewBox="0 0 1219.396 327.866">
  <defs>
    <linearGradient id="linear-gradient" x1="0.5" x2="0.5" y2="1" gradientUnits="objectBoundingBox">
      <stop offset="0" stop-color="#eeaa37"/>
      <stop offset="0.395" stop-color="#e6a033"/>
      <stop offset="1" stop-color="#d38a2a"/>
    </linearGradient>
  </defs>
  <g id="Group_1" data-name="Group 1" transform="translate(-2846.483 -1519.584)">
    <ellipse id="Ellipse_1" data-name="Ellipse 1" cx="609.698" cy="119.077" rx="609.698" ry="119.077" transform="translate(2846.483 1609.296)" fill="#ecddb3"/>
    <ellipse id="Ellipse_2" data-name="Ellipse 2" cx="604.879" cy="119.077" rx="604.879" ry="119.077" transform="translate(2851.302 1603.769)" fill="#fff7d9"/>
    <path id="Path_1" data-name="Path 1" d="M3342.643,1771.5s50.637,18.461,93.362,5.274c0,0,50.044-16.285,14.44-40.615,0,0,85.648-3.758,112.945-11.472,0,0,2.11,39.956,59.868,31.78,23.473-3.693,34.55-24,33.231-38.769s-17.67-30.858-42.462-31.649c0-22.681-39.824-162.989-174.066-159.824s-161.406,132.132-168.263,157.187c-26.638,0-96.792,15.824-98.374,47.472S3253.764,1792.337,3342.643,1771.5Z" fill="#ecddb3"/>
    <path id="Path_2" data-name="Path 2" d="M3342.643,1764.912s50.637,18.462,93.362,5.275c0,0,50.044-16.286,14.44-40.616,0,0,85.648-3.758,112.945-11.472,0,0,2.11,39.956,59.868,31.78,23.473-3.692,34.55-24,33.231-38.769s-17.67-30.857-42.462-31.648c0-22.682-39.824-162.989-174.066-159.825s-161.406,132.132-168.263,157.187c-26.638,0-96.792,15.824-98.374,47.473S3253.764,1785.747,3342.643,1764.912Z" fill="url(#linear-gradient)"/>
    <circle id="Ellipse_3" data-name="Ellipse 3" cx="5.934" cy="5.934" r="5.934" transform="translate(3378.841 1612.077)" fill="#131610"/>
    <circle id="Ellipse_4" data-name="Ellipse 4" cx="5.934" cy="5.934" r="5.934" transform="translate(3494.95 1612.077)" fill="#131610"/>
    <path id="Path_3" data-name="Path 3" d="M3426.792,1633.242a2.017,2.017,0,0,0-1.916,1.408,27.951,27.951,0,0,0-1.332,8.581c0,13.164,8.9,23.835,19.879,23.835s19.879-10.671,19.879-23.835a27.944,27.944,0,0,0-1.332-8.581,2.017,2.017,0,0,0-1.916-1.408Z" fill="#131610"/>
    <path id="Path_4" data-name="Path 4" d="M3443.423,1644.319a39.941,39.941,0,0,0-19.312,4.562c2.116,10.435,9.957,18.185,19.312,18.185s17.2-7.75,19.312-18.185A39.941,39.941,0,0,0,3443.423,1644.319Z" fill="#c1401b"/>
  </g>
</svg>
