<svg xmlns="http://www.w3.org/2000/svg" width="124.751" height="41.996" viewBox="0 0 124.751 41.996">
  <g id="Group_7" data-name="Group 7" transform="translate(-116 -293)">
    <g id="Group_1" data-name="Group 1" transform="translate(-872.223 -174.992)">
      <path id="Path_1" data-name="Path 1" d="M1011.77,493.188a1.277,1.277,0,0,0-.226-.389,1.439,1.439,0,0,0-.448-.386,3.033,3.033,0,0,0-1.406-.248h-5.032l6.633-9.179a1.856,1.856,0,0,0,.328-1.139,2.389,2.389,0,0,0-.3-1.2,2.236,2.236,0,0,0-.838-.826,2.263,2.263,0,0,0-1.132-.307h-9.034a7.169,7.169,0,0,0-.836.035,2.079,2.079,0,0,0-.69.244c-.514.267-.762.923-.762,2.009,0,1.03.273,1.684.823,1.95a2.629,2.629,0,0,0,.7.213,7.154,7.154,0,0,0,.835.035h4.6l-6.633,9.18a1.818,1.818,0,0,0-.326,1.117,2.172,2.172,0,0,0,1.133,2.025,2.263,2.263,0,0,0,1.132.307h9.349a3.8,3.8,0,0,0,1.236-.149,1.162,1.162,0,0,0,.61-.389,2.061,2.061,0,0,0,.319-.681,3.954,3.954,0,0,0,.124-1.092,3.4,3.4,0,0,0-.164-1.132Z" transform="translate(4.239 4.915)" fill="#f65237"/>
      <path id="Path_2" data-name="Path 2" d="M1028.14,476.389a9.867,9.867,0,0,0-10.2-3.976,10.8,10.8,0,0,0-17.43,0,10.432,10.432,0,0,0-8.085,18.633v16.842a2.1,2.1,0,0,0,2.1,2.1h29.4a2.1,2.1,0,0,0,2.1-2.1V491.046A10.472,10.472,0,0,0,1028.14,476.389Zm-5.272,11.72a2.1,2.1,0,0,0-1.042,1.814v7.465h-4.006a5.37,5.37,0,0,1,.273,1.774,5.874,5.874,0,0,1-.2,1.652,4.706,4.706,0,0,1-.306.774h4.244v4.2h-25.2v-4.2h4.449a4.327,4.327,0,0,1-.716-2.448,3.991,3.991,0,0,1,.388-1.752h-4.12v-7.465a2.1,2.1,0,0,0-1.042-1.814,6.256,6.256,0,0,1,2.791-11.684,13.446,13.446,0,0,0-.7,4.164,2.1,2.1,0,0,0,4.2,0c0-4.633,3.3-8.4,7.35-8.4s7.35,3.767,7.35,8.4a2.1,2.1,0,1,0,4.2,0,13.485,13.485,0,0,0-.7-4.164,6.257,6.257,0,0,1,2.791,11.684Z" fill="#f65237"/>
    </g>
    <g id="Group_1-2" data-name="Group 1" transform="translate(-747.07 17.402)">
      <path id="Path_1-2" data-name="Path 1" d="M926.338,305.343a2.884,2.884,0,0,1,1.294.217,1.143,1.143,0,0,1,.549.631,3.148,3.148,0,0,1,.149,1.053,3.79,3.79,0,0,1-.115,1.031,1.82,1.82,0,0,1-.275.6.9.9,0,0,1-.481.3,3.612,3.612,0,0,1-1.168.137h-9.527a2,2,0,0,1-1.007-.275,1.929,1.929,0,0,1-1.008-1.809,1.562,1.562,0,0,1,.275-.962l7.1-9.824h-5.267a7.016,7.016,0,0,1-.812-.034,2.408,2.408,0,0,1-.63-.194q-.665-.321-.664-1.718,0-1.465.618-1.786a1.835,1.835,0,0,1,.607-.218,7.037,7.037,0,0,1,.813-.034h9.2a2,2,0,0,1,1.007.275,1.963,1.963,0,0,1,.744.733,2.122,2.122,0,0,1,.264,1.076,1.6,1.6,0,0,1-.275.984l-7.1,9.825Z" transform="translate(0 -0.074)" fill="#f65237"/>
      <path id="Path_2-2" data-name="Path 2" d="M938.277,305.212h7.053a6.611,6.611,0,0,1,.79.034,1.821,1.821,0,0,1,.607.217q.619.322.618,1.787,0,1.6-.847,1.878a3.838,3.838,0,0,1-1.191.137h-9.068q-1.6,0-1.877-.871a3.578,3.578,0,0,1-.138-1.168V294.495a2.218,2.218,0,0,1,.435-1.592,2.391,2.391,0,0,1,1.649-.423h9.022a6.611,6.611,0,0,1,.79.034,1.836,1.836,0,0,1,.607.217q.619.321.618,1.787,0,1.6-.847,1.877a3.834,3.834,0,0,1-1.191.138h-7.03v2.313h4.533a6.751,6.751,0,0,1,.79.034,1.866,1.866,0,0,1,.607.217q.619.32.618,1.786,0,1.6-.871,1.878a3.817,3.817,0,0,1-1.191.138h-4.488Z" transform="translate(-4.405 -0.08)" fill="#f65237"/>
      <path id="Path_3" data-name="Path 3" d="M953.256,306.826a2.194,2.194,0,0,1-.595-1.316q0-.585.984-1.547a1.739,1.739,0,0,1,1.213-.549q.641,0,1.787,1.145a3.463,3.463,0,0,0,.916.744,2.174,2.174,0,0,0,1.1.355q2.13,0,2.13-1.741a1.029,1.029,0,0,0-.584-.881,4.278,4.278,0,0,0-1.454-.515A13.2,13.2,0,0,1,955,301.17a3.789,3.789,0,0,1-1.455-1.522,5.051,5.051,0,0,1-.583-2.508,4.815,4.815,0,0,1,1.5-3.515,5.524,5.524,0,0,1,4.088-1.5,8.381,8.381,0,0,1,2.507.354,4.8,4.8,0,0,1,1.568.722l.573.435a1.788,1.788,0,0,1,.71,1.122,2.523,2.523,0,0,1-.549,1.259q-.779,1.146-1.6,1.145a2.347,2.347,0,0,1-1.191-.458,2.651,2.651,0,0,1-.263-.228,3.45,3.45,0,0,0-.355-.3,2.292,2.292,0,0,0-1.226-.3,2.061,2.061,0,0,0-1.236.355,1.145,1.145,0,0,0-.492.984,1.176,1.176,0,0,0,.584,1.019,3.6,3.6,0,0,0,1.454.527,17.135,17.135,0,0,1,1.9.423,11.868,11.868,0,0,1,1.9.7,3.359,3.359,0,0,1,1.454,1.431,4.97,4.97,0,0,1,.584,2.508,5.558,5.558,0,0,1-.6,2.622,4.535,4.535,0,0,1-1.558,1.752,7.1,7.1,0,0,1-3.961,1.213,7.714,7.714,0,0,1-2.038-.263,6.5,6.5,0,0,1-3.251-2.072Z" transform="translate(-8.576)" fill="#f65237"/>
      <path id="Path_4" data-name="Path 4" d="M969.81,292.45h12.732a2.531,2.531,0,0,1,1.076.172.87.87,0,0,1,.458.538,3.314,3.314,0,0,1,.114.962,3.188,3.188,0,0,1-.114.951.785.785,0,0,1-.389.491,2.651,2.651,0,0,1-1.168.207h-4.374v11.518a6.453,6.453,0,0,1-.034.778,1.86,1.86,0,0,1-.207.584.97.97,0,0,1-.607.47,3.919,3.919,0,0,1-1.145.137,3.8,3.8,0,0,1-1.134-.137.968.968,0,0,1-.595-.47,1.862,1.862,0,0,1-.207-.6,6.75,6.75,0,0,1-.034-.79v-11.5h-4.4a2.526,2.526,0,0,1-1.076-.172.869.869,0,0,1-.459-.538,3.309,3.309,0,0,1-.114-.963,3.19,3.19,0,0,1,.114-.95.792.792,0,0,1,.389-.492A2.676,2.676,0,0,1,969.81,292.45Z" transform="translate(-12.078 -0.074)" fill="#f65237"/>
      <path id="Path_5" data-name="Path 5" d="M1003.671,292.727q1.122.778,1.122,1.511a2.47,2.47,0,0,1-.527,1.213l-4.946,7.4v4.374a6.753,6.753,0,0,1-.034.79,1.853,1.853,0,0,1-.217.607,1.008,1.008,0,0,1-.619.481,5.045,5.045,0,0,1-2.335,0,1,1,0,0,1-.618-.493,1.944,1.944,0,0,1-.217-.618,7.024,7.024,0,0,1-.034-.812v-4.328l-4.946-7.4a2.462,2.462,0,0,1-.527-1.213q0-.732,1.007-1.408a3.279,3.279,0,0,1,1.443-.676,1.146,1.146,0,0,1,.687.183,3.05,3.05,0,0,1,.824.939l3.549,5.679,3.55-5.679a3.174,3.174,0,0,1,.755-.9,1.294,1.294,0,0,1,.744-.217A3.063,3.063,0,0,1,1003.671,292.727Z" transform="translate(-16.972 -0.007)" fill="#f65237"/>
    </g>
  </g>
</svg>
