<?xml version="1.0" encoding="utf-8"?>
<!-- Generator: Adobe Illustrator 24.0.0, SVG Export Plug-In . SVG Version: 6.00 Build 0)  -->
<svg version="1.1" id="Layer_1" xmlns="http://www.w3.org/2000/svg" xmlns:xlink="http://www.w3.org/1999/xlink" x="0px" y="0px"
	 viewBox="0 0 89 29.9" style="enable-background:new 0 0 89 29.9;" xml:space="preserve">
<style type="text/css">
	.st0{fill:#1A202C;}
</style>
<g>
	<path class="st0" d="M47.6,20.9c0.4,0,0.7,0,0.9,0.1s0.3,0.2,0.4,0.4c0.1,0.2,0.1,0.4,0.1,0.7c0,0.3,0,0.5-0.1,0.7
		s-0.1,0.3-0.2,0.4c-0.1,0.1-0.2,0.2-0.3,0.2c-0.2,0.1-0.4,0.1-0.8,0.1h-6.3c-0.2,0-0.5-0.1-0.7-0.2c-0.4-0.3-0.7-0.7-0.7-1.2
		c0-0.3,0.1-0.5,0.2-0.6l4.7-6.5h-3.5c-0.2,0-0.4,0-0.5,0s-0.3-0.1-0.4-0.1c-0.3-0.1-0.4-0.5-0.4-1.1c0-0.7,0.1-1,0.4-1.2
		c0.2-0.1,0.3-0.1,0.4-0.1c0.1,0,0.3,0,0.5,0h6.1c0.2,0,0.5,0.1,0.7,0.2c0.2,0.1,0.4,0.3,0.5,0.5s0.2,0.4,0.2,0.7s-0.1,0.5-0.2,0.7
		l-4.7,6.5h3.7V20.9z"/>
	<path class="st0" d="M52.6,20.8h4.7c0.2,0,0.4,0,0.5,0s0.3,0.1,0.4,0.1c0.3,0.1,0.4,0.5,0.4,1.2s-0.2,1.1-0.6,1.2
		c-0.2,0.1-0.4,0.1-0.8,0.1h-6c-0.7,0-1.1-0.2-1.2-0.6c-0.1-0.2-0.1-0.4-0.1-0.8v-8.5c0-0.5,0.1-0.9,0.3-1.1
		c0.2-0.2,0.6-0.3,1.1-0.3h6c0.2,0,0.4,0,0.5,0s0.3,0.1,0.4,0.1c0.3,0.1,0.4,0.5,0.4,1.2s-0.2,1.1-0.6,1.2C57.9,15,57.6,15,57.3,15
		h-4.7v1.5h3c0.2,0,0.4,0,0.5,0s0.3,0.1,0.4,0.1c0.3,0.1,0.4,0.5,0.4,1.2s-0.2,1.1-0.6,1.2c-0.2,0.1-0.4,0.1-0.8,0.1h-3L52.6,20.8
		L52.6,20.8z"/>
	<path class="st0" d="M59.8,21.9c-0.3-0.3-0.4-0.6-0.4-0.9s0.2-0.6,0.7-1c0.3-0.2,0.5-0.4,0.8-0.4s0.7,0.3,1.2,0.8
		c0.1,0.2,0.3,0.3,0.6,0.5s0.5,0.2,0.7,0.2c0.9,0,1.4-0.4,1.4-1.2c0-0.2-0.1-0.4-0.4-0.6s-0.6-0.3-1-0.3c-0.4-0.1-0.8-0.2-1.2-0.3
		c-0.4-0.2-0.9-0.3-1.2-0.6c-0.4-0.2-0.7-0.6-1-1c-0.3-0.5-0.4-1-0.4-1.7c0-0.9,0.3-1.7,1-2.3c0.7-0.7,1.6-1,2.7-1
		c0.6,0,1.2,0.1,1.7,0.2c0.5,0.2,0.9,0.3,1,0.5l0.4,0.3c0.3,0.3,0.5,0.5,0.5,0.7s-0.1,0.5-0.4,0.8c-0.3,0.5-0.7,0.8-1.1,0.8
		c-0.2,0-0.5-0.1-0.8-0.3c0,0-0.1-0.1-0.2-0.2c-0.1-0.1-0.2-0.1-0.2-0.2c-0.2-0.1-0.5-0.2-0.8-0.2s-0.6,0.1-0.8,0.2
		c-0.2,0.2-0.3,0.4-0.3,0.7s0.1,0.5,0.4,0.7c0.3,0.2,0.6,0.3,1,0.4c0.4,0.1,0.8,0.2,1.3,0.3c0.5,0.1,0.9,0.3,1.3,0.5s0.7,0.5,1,1
		s0.4,1,0.4,1.7s-0.1,1.2-0.4,1.7s-0.6,0.9-1,1.2c-0.8,0.5-1.7,0.8-2.6,0.8c-0.5,0-0.9-0.1-1.4-0.2c-0.4-0.1-0.8-0.3-1-0.4
		c-0.5-0.3-0.9-0.6-1.1-0.9L59.8,21.9z"/>
	<path class="st0" d="M68.5,12.3H77c0.3,0,0.6,0,0.7,0.1c0.2,0.1,0.3,0.2,0.3,0.4c0.1,0.2,0.1,0.4,0.1,0.6c0,0.3,0,0.5-0.1,0.6
		c-0.1,0.2-0.1,0.3-0.3,0.3c-0.2,0.1-0.4,0.1-0.8,0.1H74v7.7c0,0.2,0,0.4,0,0.5s-0.1,0.2-0.1,0.4c-0.1,0.1-0.2,0.3-0.4,0.3
		c-0.2,0.1-0.4,0.1-0.8,0.1s-0.6,0-0.8-0.1c-0.2-0.1-0.3-0.2-0.4-0.3c-0.1-0.1-0.1-0.3-0.1-0.4s0-0.3,0-0.5v-7.7h-2.9
		c-0.3,0-0.6,0-0.7-0.1c-0.2-0.1-0.3-0.2-0.3-0.4s-0.1-0.4-0.1-0.6c0-0.3,0-0.5,0.1-0.6c0.1-0.2,0.1-0.3,0.3-0.3
		C67.9,12.3,68.1,12.3,68.5,12.3z"/>
	<path class="st0" d="M87.7,12.5c0.5,0.3,0.7,0.7,0.7,1c0,0.2-0.1,0.5-0.4,0.8l-3.3,4.9v2.9c0,0.2,0,0.4,0,0.5s-0.1,0.3-0.1,0.4
		c-0.1,0.2-0.2,0.3-0.4,0.3c-0.2,0.1-0.5,0.1-0.8,0.1s-0.6,0-0.8-0.1c-0.2-0.1-0.3-0.2-0.4-0.3c-0.1-0.2-0.1-0.3-0.1-0.4
		s0-0.3,0-0.5v-2.9l-3.3-4.9c-0.2-0.3-0.4-0.6-0.4-0.8c0-0.3,0.2-0.6,0.7-0.9c0.4-0.3,0.8-0.4,1-0.4s0.3,0,0.5,0.1s0.4,0.3,0.5,0.6
		l2.4,3.8l2.4-3.8c0.2-0.3,0.4-0.5,0.5-0.6s0.3-0.1,0.5-0.1C87,12.1,87.3,12.3,87.7,12.5z"/>
</g>
<g>
	<path class="st0" d="M19.3,21.2c0-0.1-0.1-0.2-0.2-0.3c-0.1-0.1-0.2-0.2-0.3-0.3c-0.2-0.1-0.5-0.2-1-0.2h-3.4l4.5-6.2
		c0.1-0.2,0.2-0.5,0.2-0.8s-0.1-0.6-0.2-0.8s-0.3-0.4-0.6-0.6c-0.2-0.1-0.5-0.2-0.8-0.2h-6.1c-0.3,0-0.4,0-0.6,0
		c-0.1,0-0.3,0.1-0.5,0.2c-0.3,0.2-0.5,0.6-0.5,1.4c0,0.7,0.2,1.1,0.6,1.3c0.2,0.1,0.3,0.1,0.5,0.1c0.1,0,0.3,0,0.6,0h3.1L10.1,21
		c-0.1,0.2-0.2,0.5-0.2,0.8c0,0.6,0.3,1.1,0.8,1.4c0.2,0.1,0.5,0.2,0.8,0.2h6.3c0.4,0,0.7,0,0.8-0.1c0.2-0.1,0.3-0.1,0.4-0.3
		c0.1-0.1,0.2-0.3,0.2-0.5c0.1-0.2,0.1-0.4,0.1-0.7C19.4,21.7,19.4,21.4,19.3,21.2L19.3,21.2z"/>
	<path class="st0" d="M27.8,6.2c-1.4-1.8-3.5-2.9-5.8-2.9c-0.4,0-0.8,0.1-1.2,0.2c-2.4-3.3-7.1-4.1-10.4-1.6c-0.6,0.5-1.2,1-1.6,1.6
		C8.3,3.4,7.9,3.3,7.5,3.3c-4,0-7.2,3.2-7.3,7.2c0,2.3,1.1,4.4,2.9,5.8V28c0,0.8,0.6,1.5,1.4,1.5l0,0h20.3c0.8,0,1.5-0.6,1.5-1.4
		l0,0V16.4C29.5,14,30.2,9.4,27.8,6.2z M24.2,14.3c-0.4,0.3-0.7,0.7-0.7,1.3v5.2h-2.8c0.1,0.4,0.2,0.8,0.2,1.2c0,0.4,0,0.8-0.1,1.1
		c-0.1,0.2-0.1,0.4-0.2,0.5h2.9v2.9H6v-2.9h3.1c-0.3-0.5-0.5-1-0.5-1.7c0-0.4,0.1-0.9,0.3-1.2H6v-5.2c0-0.5-0.3-1-0.7-1.3
		C3.2,13,2.5,10.4,3.7,8.3C4.4,7,5.8,6.2,7.2,6.1c-0.3,1.1-0.4,2-0.5,3c0,0.8,0.6,1.5,1.5,1.5c0.8,0,1.5-0.6,1.5-1.5
		c0-3.2,2.3-5.8,5.1-5.8s5.1,2.6,5.1,5.8c0,0.8,0.6,1.5,1.5,1.5s1.5-0.6,1.5-1.5c0-1-0.2-2-0.5-2.9c2.4,0.1,4.2,2.1,4.1,4.5
		C26.3,12.3,25.4,13.6,24.2,14.3z"/>
</g>
</svg>
