<svg xmlns="http://www.w3.org/2000/svg" width="42" height="42" viewBox="0 0 42 42">
  <g id="Group_1" data-name="Group 1" transform="translate(-988.225 -467.989)">
    <path id="Path_1" data-name="Path 1" d="M1011.774,493.188a1.275,1.275,0,0,0-.226-.389,1.44,1.44,0,0,0-.448-.386,3.033,3.033,0,0,0-1.406-.248h-5.032l6.633-9.179a1.857,1.857,0,0,0,.328-1.139,2.389,2.389,0,0,0-.3-1.2,2.236,2.236,0,0,0-.838-.826,2.263,2.263,0,0,0-1.132-.307h-9.034a7.184,7.184,0,0,0-.836.035,2.079,2.079,0,0,0-.69.244c-.514.267-.762.923-.762,2.009,0,1.03.273,1.684.823,1.95a2.627,2.627,0,0,0,.7.213,7.154,7.154,0,0,0,.835.035h4.6l-6.633,9.18a1.819,1.819,0,0,0-.326,1.117,2.172,2.172,0,0,0,1.133,2.025,2.263,2.263,0,0,0,1.132.307h9.349a3.8,3.8,0,0,0,1.236-.149,1.162,1.162,0,0,0,.61-.389,2.061,2.061,0,0,0,.319-.681,3.954,3.954,0,0,0,.124-1.092,3.4,3.4,0,0,0-.164-1.132Z" transform="translate(4.239 4.915)" fill="#f65237"/>
    <path id="Path_2" data-name="Path 2" d="M1028.138,476.389a9.867,9.867,0,0,0-10.2-3.976,10.8,10.8,0,0,0-17.43,0,10.432,10.432,0,0,0-8.085,18.633v16.842a2.1,2.1,0,0,0,2.1,2.1h29.4a2.1,2.1,0,0,0,2.1-2.1V491.046A10.472,10.472,0,0,0,1028.138,476.389Zm-5.272,11.72a2.1,2.1,0,0,0-1.042,1.814v7.465h-4.006a5.365,5.365,0,0,1,.273,1.774,5.872,5.872,0,0,1-.205,1.652,4.7,4.7,0,0,1-.306.774h4.244v4.2h-25.2v-4.2h4.449a4.327,4.327,0,0,1-.716-2.448,3.991,3.991,0,0,1,.388-1.752h-4.12v-7.465a2.1,2.1,0,0,0-1.042-1.814,6.256,6.256,0,0,1,2.791-11.684,13.447,13.447,0,0,0-.7,4.164,2.1,2.1,0,1,0,4.2,0c0-4.633,3.3-8.4,7.35-8.4s7.35,3.767,7.35,8.4a2.1,2.1,0,1,0,4.2,0,13.482,13.482,0,0,0-.7-4.164,6.257,6.257,0,0,1,2.791,11.684Z" transform="translate(0 0)" fill="#f65237"/>
  </g>
</svg>
