<svg id="Layer_1" data-name="Layer 1" xmlns="http://www.w3.org/2000/svg" viewBox="0 0 95.08 46.78"><defs><style>.cls-1{fill:#f65237;}.cls-2{fill:#ccb2b2;}</style></defs><title>Artboard 1</title><path class="cls-1" d="M15.27,17.19a3.71,3.71,0,0,1,1.68.28,1.52,1.52,0,0,1,.71.81,4.32,4.32,0,0,1,.19,1.36A4.72,4.72,0,0,1,17.7,21a2.42,2.42,0,0,1-.35.77,1.18,1.18,0,0,1-.63.39,4.51,4.51,0,0,1-1.5.18H2.9A2.58,2.58,0,0,1,1.6,22,2.49,2.49,0,0,1,.3,19.61a2.07,2.07,0,0,1,.35-1.24L9.83,5.67H3a9.14,9.14,0,0,1-1,0,3,3,0,0,1-.81-.25C.59,5.1.3,4.36.3,3.16s.27-2,.8-2.31A2.32,2.32,0,0,1,1.88.57a8.65,8.65,0,0,1,1.05,0h11.9a2.55,2.55,0,0,1,1.3.36,2.44,2.44,0,0,1,1,1,2.71,2.71,0,0,1,.35,1.39,2,2,0,0,1-.36,1.27L7.91,17.19Z"/><path class="cls-1" d="M25,17h9.12a8.77,8.77,0,0,1,1,0,2.65,2.65,0,0,1,.78.28c.53.28.8,1.05.8,2.31s-.37,2.19-1.1,2.43a4.8,4.8,0,0,1-1.53.18H22.38c-1.38,0-2.19-.38-2.43-1.13a4.58,4.58,0,0,1-.18-1.51V3.16a2.9,2.9,0,0,1,.56-2.06A3.15,3.15,0,0,1,22.47.55H34.13a8.32,8.32,0,0,1,1,0,2.39,2.39,0,0,1,.78.28c.53.28.8,1,.8,2.31s-.37,2.19-1.1,2.43a5.18,5.18,0,0,1-1.53.17H25v3h5.86a8.32,8.32,0,0,1,1,.05,2.36,2.36,0,0,1,.79.28c.53.27.79,1,.79,2.31s-.37,2.19-1.12,2.42a4.91,4.91,0,0,1-1.54.18H25Z"/><path class="cls-1" d="M39,19.2a2.86,2.86,0,0,1-.77-1.7c0-.51.42-1.17,1.27-2a2.26,2.26,0,0,1,1.57-.71c.55,0,1.32.49,2.31,1.48a4.42,4.42,0,0,0,1.18,1,2.78,2.78,0,0,0,1.42.46c1.84,0,2.75-.75,2.75-2.25A1.34,1.34,0,0,0,48,14.3a5.46,5.46,0,0,0-1.88-.66A16,16,0,0,1,43.65,13a17.21,17.21,0,0,1-2.42-1.08,4.91,4.91,0,0,1-1.88-2,6.47,6.47,0,0,1-.76-3.24,6.22,6.22,0,0,1,1.94-4.54A7.16,7.16,0,0,1,45.82.2a10.7,10.7,0,0,1,3.24.46,6.18,6.18,0,0,1,2,.93l.74.56c.61.58.92,1.06.92,1.45A3.29,3.29,0,0,1,52,5.23c-.67,1-1.36,1.48-2.07,1.48a3.05,3.05,0,0,1-1.54-.59,3.7,3.7,0,0,1-.34-.3c-.17-.15-.32-.28-.46-.38A2.91,2.91,0,0,0,46,5.05a2.7,2.7,0,0,0-1.6.46,1.47,1.47,0,0,0-.64,1.27,1.5,1.5,0,0,0,.76,1.32,4.6,4.6,0,0,0,1.88.68,21.34,21.34,0,0,1,2.45.55,16.12,16.12,0,0,1,2.46.9,4.34,4.34,0,0,1,1.88,1.85A6.47,6.47,0,0,1,54,15.32a7.12,7.12,0,0,1-.77,3.39,5.76,5.76,0,0,1-2,2.26,9.15,9.15,0,0,1-5.12,1.57,9.77,9.77,0,0,1-2.63-.34,6.94,6.94,0,0,1-2-.84,7.34,7.34,0,0,1-2.19-1.83Z"/><path class="cls-1" d="M55.85.52H72.3a3.2,3.2,0,0,1,1.39.23,1.07,1.07,0,0,1,.59.69,4.26,4.26,0,0,1,.15,1.25,4,4,0,0,1-.15,1.22,1,1,0,0,1-.5.64,3.4,3.4,0,0,1-1.51.27H66.62V19.7c0,.46,0,.79,0,1a2.29,2.29,0,0,1-.27.75,1.25,1.25,0,0,1-.79.61,4.92,4.92,0,0,1-1.48.18,4.78,4.78,0,0,1-1.46-.18,1.24,1.24,0,0,1-.77-.61,2.3,2.3,0,0,1-.27-.77,8.56,8.56,0,0,1,0-1V4.82H55.82a3.2,3.2,0,0,1-1.39-.23,1.11,1.11,0,0,1-.6-.69,4.65,4.65,0,0,1-.14-1.24,4.42,4.42,0,0,1,.14-1.23,1,1,0,0,1,.51-.64A3.4,3.4,0,0,1,55.85.52Z"/><path class="cls-1" d="M93.28,1c1,.67,1.45,1.32,1.45,2a3.12,3.12,0,0,1-.68,1.57l-6.39,9.56V19.7a8.56,8.56,0,0,1,0,1,2.6,2.6,0,0,1-.28.79,1.35,1.35,0,0,1-.8.62,5.14,5.14,0,0,1-1.51.18,5.05,5.05,0,0,1-1.51-.18,1.28,1.28,0,0,1-.8-.64,2.4,2.4,0,0,1-.28-.8,8.41,8.41,0,0,1,0-1.05V14.05L76,4.49a3.21,3.21,0,0,1-.68-1.57c0-.63.43-1.24,1.3-1.82A4.23,4.23,0,0,1,78.49.23a1.44,1.44,0,0,1,.88.24,3.76,3.76,0,0,1,1.07,1.21L85,9l4.58-7.34a4.2,4.2,0,0,1,1-1.17,1.67,1.67,0,0,1,1-.28A4,4,0,0,1,93.28,1Z"/><path class="cls-2" d="M6.49,33.53a1.2,1.2,0,0,1,.55.36,1.24,1.24,0,0,1,.21.8,2.69,2.69,0,0,1-.33,1.21,1,1,0,0,1-1,.66,1.25,1.25,0,0,1-.59-.14,1.78,1.78,0,0,0-.76-.14,1.35,1.35,0,0,0-.87.33,1,1,0,0,0-.41.8V41c0,.27,0,.46,0,.6a1.38,1.38,0,0,1-.17.46c-.17.3-.62.44-1.35.44a1.88,1.88,0,0,1-1.19-.29,1,1,0,0,1-.31-.74V34.94a4.33,4.33,0,0,1,0-.6,1.24,1.24,0,0,1,.14-.44c.16-.31.61-.47,1.35-.47s1.13.13,1.3.4a1,1,0,0,1,.19.57c.06-.08.14-.18.25-.3a3.16,3.16,0,0,1,.7-.46,2,2,0,0,1,.94-.3,4.44,4.44,0,0,1,.69,0C6.07,33.42,6.27,33.47,6.49,33.53Z"/><path class="cls-2" d="M18.2,36.9a2.1,2.1,0,0,1-.53,1.57A1.64,1.64,0,0,1,16.5,39H12.41a1,1,0,0,0,.57.82,2.35,2.35,0,0,0,1.14.32,5,5,0,0,0,1.57-.2l.19-.07a1.71,1.71,0,0,1,.69-.19c.37,0,.69.26,1,.77a2.11,2.11,0,0,1,.22.8c0,1-1.23,1.54-3.68,1.54a5.62,5.62,0,0,1-2.28-.44,3.91,3.91,0,0,1-1.55-1.17A5,5,0,0,1,9.15,38a4.51,4.51,0,0,1,1.41-3.48,5,5,0,0,1,3.52-1.31,3.93,3.93,0,0,1,3.53,1.7A3.52,3.52,0,0,1,18.2,36.9Zm-3.65.51c.44,0,.66-.19.66-.55a.79.79,0,0,0-.31-.65A1.35,1.35,0,0,0,14,36a1.8,1.8,0,0,0-1.12.46,1.31,1.31,0,0,0-.55,1Z"/><path class="cls-2" d="M23.91,38a1.41,1.41,0,0,0,.48,1.14,1.59,1.59,0,0,0,1,.41,1.83,1.83,0,0,0,1-.32,1.46,1.46,0,0,1,.77-.32c.35,0,.77.3,1.26.91a1.52,1.52,0,0,1,.4.9c0,.44-.32.85-.95,1.23a4.13,4.13,0,0,1-2.42.69,5,5,0,0,1-3.1-1.16A4.14,4.14,0,0,1,21.24,40a4.56,4.56,0,0,1-.45-2,4.5,4.5,0,0,1,.45-2,4.15,4.15,0,0,1,1.16-1.46,4.85,4.85,0,0,1,3.06-1.14,5.1,5.1,0,0,1,2.2.53l.28.18c.2.13.37.24.48.33a1,1,0,0,1,.45.78,1.88,1.88,0,0,1-.36,1c-.42.63-.82,1-1.2,1a2,2,0,0,1-.93-.38,1.23,1.23,0,0,0-.89-.3,1.63,1.63,0,0,0-1.08.42A1.39,1.39,0,0,0,23.91,38Z"/><path class="cls-2" d="M34.57,31.74a.74.74,0,0,1-.46.36,3.88,3.88,0,0,1-1.75,0,.74.74,0,0,1-.46-.36,1.87,1.87,0,0,1-.15-.46,4.33,4.33,0,0,1,0-.6,4.54,4.54,0,0,1,0-.6,1.64,1.64,0,0,1,.15-.44c.16-.31.61-.46,1.34-.46s1.17.15,1.32.46a1.33,1.33,0,0,1,.16.46,4.33,4.33,0,0,1,0,.6,4.27,4.27,0,0,1,0,.59A1.25,1.25,0,0,1,34.57,31.74ZM31.72,35a4.27,4.27,0,0,1,0-.59,1.63,1.63,0,0,1,.15-.46c.16-.3.61-.45,1.34-.45a1.87,1.87,0,0,1,1.18.29.94.94,0,0,1,.31.75c0,.11,0,.28,0,.5v6a4.43,4.43,0,0,1,0,.6,1.33,1.33,0,0,1-.16.46c-.15.3-.59.44-1.33.44s-1.17-.15-1.33-.46a1.69,1.69,0,0,1-.15-.45,4.4,4.4,0,0,1,0-.61Z"/><path class="cls-2" d="M37.86,45V34.92a4.17,4.17,0,0,1,0-.59A1.23,1.23,0,0,1,38,33.9c.16-.31.54-.47,1.15-.47a2.31,2.31,0,0,1,1.24.23,1,1,0,0,1,.37.69,2.4,2.4,0,0,1,2.07-.9,3.66,3.66,0,0,1,2.67,1.33,4.44,4.44,0,0,1,0,6.19,3.66,3.66,0,0,1-2.67,1.33,2.49,2.49,0,0,1-2.06-.79V45a4.17,4.17,0,0,1,0,.59,1.43,1.43,0,0,1-.15.44.71.71,0,0,1-.44.35,2.74,2.74,0,0,1-.85.11,2.85,2.85,0,0,1-.86-.11A.72.72,0,0,1,38,46a1.58,1.58,0,0,1-.15-.43A4.27,4.27,0,0,1,37.86,45Zm3.43-8.15a1.51,1.51,0,0,0-.4,1,1.44,1.44,0,0,0,.41,1,1.3,1.3,0,0,0,1,.46,1.47,1.47,0,0,0,1.08-.45,1.44,1.44,0,0,0,.44-1,1.5,1.5,0,0,0-.42-1,1.41,1.41,0,0,0-1.08-.45A1.32,1.32,0,0,0,41.29,36.87Z"/><path class="cls-2" d="M58.44,36.9a2.09,2.09,0,0,1-.52,1.57,1.68,1.68,0,0,1-1.17.51h-4.1a1,1,0,0,0,.57.82,2.35,2.35,0,0,0,1.14.32,5.1,5.1,0,0,0,1.58-.2l.19-.07a1.64,1.64,0,0,1,.69-.19c.37,0,.68.26,1,.77a1.94,1.94,0,0,1,.22.8c0,1-1.22,1.54-3.68,1.54A5.6,5.6,0,0,1,52,42.33a3.84,3.84,0,0,1-1.55-1.17A5,5,0,0,1,49.4,38a4.51,4.51,0,0,1,1.41-3.48,5,5,0,0,1,3.52-1.31,3.94,3.94,0,0,1,3.53,1.7A3.51,3.51,0,0,1,58.44,36.9Zm-3.65.51c.44,0,.66-.19.66-.55a.81.81,0,0,0-.3-.65,1.37,1.37,0,0,0-.87-.24,1.78,1.78,0,0,0-1.11.46,1.3,1.3,0,0,0-.56,1Z"/><path class="cls-2" d="M61.37,41.73a.72.72,0,0,1-.33-.65,2.85,2.85,0,0,1,.65-1.37.69.69,0,0,1,.62-.3,2.61,2.61,0,0,1,1.15.43,2.66,2.66,0,0,0,1.31.42c.71,0,1.06-.14,1.06-.41s-.39-.38-1.16-.49a5.51,5.51,0,0,1-2.16-.81,2.27,2.27,0,0,1-.83-1A3.51,3.51,0,0,1,61.35,36q0-2.73,3.75-2.73a6,6,0,0,1,2.53.59q.6.27.6.69a2.12,2.12,0,0,1-.38,1q-.37.6-.78.6a2.21,2.21,0,0,1-.77-.26,2.9,2.9,0,0,0-1.22-.26q-1,0-1,.39c0,.34.4.57,1.18.67a6.33,6.33,0,0,1,2.21.66,1.89,1.89,0,0,1,.84.84,2.91,2.91,0,0,1,.34,1.49,3.15,3.15,0,0,1-.34,1.53,2.14,2.14,0,0,1-.94.94,6.32,6.32,0,0,1-2.78.54A5.87,5.87,0,0,1,61.37,41.73Z"/></svg>