<?xml version="1.0" standalone="no"?>
<!DOCTYPE svg PUBLIC "-//W3C//DTD SVG 20010904//EN"
 "http://www.w3.org/TR/2001/REC-SVG-20010904/DTD/svg10.dtd">
<svg version="1.0" xmlns="http://www.w3.org/2000/svg"
 width="512.000000pt" height="512.000000pt" viewBox="0 0 512.000000 512.000000"
 preserveAspectRatio="xMidYMid meet">
<metadata>
Created by potrace 1.11, written by Peter Selinger 2001-2013
</metadata>
<g transform="translate(0.000000,512.000000) scale(0.100000,-0.100000)"
fill="#000000" stroke="none">
<path d="M2396 4489 c-214 -35 -417 -153 -567 -326 l-36 -42 -64 10 c-185 30
-451 -39 -621 -161 -62 -45 -152 -135 -204 -203 -143 -191 -205 -471 -156
-707 42 -206 154 -393 311 -523 l35 -29 0 -751 c1 -802 -1 -770 50 -825 54
-60 -42 -56 1386 -58 762 -1 1320 2 1342 7 44 11 92 50 116 93 15 28 17 96 18
783 l1 752 34 28 c142 117 246 278 299 464 32 108 36 304 10 421 -77 348 -339
612 -686 694 -86 20 -231 26 -304 12 -48 -8 -56 -8 -65 7 -41 70 -241 231
-345 278 -63 29 -184 66 -250 76 -75 12 -232 12 -304 0z m323 -378 c263 -85
445 -342 466 -654 7 -99 10 -113 42 -156 49 -65 142 -87 218 -52 76 35 107 95
104 204 -2 81 -20 198 -43 271 l-15 48 52 -6 c266 -36 472 -282 461 -552 -6
-172 -96 -332 -241 -430 -73 -49 -98 -76 -111 -123 -6 -22 -11 -151 -10 -326
0 -159 -1 -309 -1 -331 l-1 -42 -152 0 c-218 0 -201 2 -187 -24 21 -38 20
-179 0 -260 -11 -40 -18 -74 -17 -76 2 -1 82 -2 179 -3 175 0 177 0 178 -22 5
-188 2 -337 -6 -338 -40 -3 -2166 -1 -2169 2 -5 4 -8 167 -7 302 l1 58 186 -1
c102 -1 188 1 191 3 2 3 -2 16 -11 29 -40 62 -54 220 -25 290 8 21 9 32 2 36
-6 4 -86 6 -177 6 -147 -1 -166 0 -166 15 0 9 -2 167 -3 351 -2 292 -4 339
-18 360 -28 42 -53 66 -85 83 -84 43 -180 159 -222 267 -126 325 88 681 436
727 42 6 42 5 33 -20 -19 -49 -43 -183 -48 -268 -6 -93 4 -140 39 -184 25 -31
97 -65 139 -65 67 0 150 56 169 114 5 17 12 62 15 100 12 172 44 272 131 407
86 133 241 243 386 273 84 18 208 12 287 -13z"/>
<path d="M2346 3063 c-1 -1 -65 -3 -143 -4 -153 -1 -184 -10 -218 -63 -38 -58
-27 -233 18 -274 44 -39 59 -41 489 -42 l58 0 -137 -187 c-75 -104 -151 -208
-168 -233 -18 -25 -82 -113 -143 -197 -127 -174 -142 -200 -142 -245 0 -97 59
-177 147 -197 31 -7 197 -10 480 -9 484 1 493 2 530 70 27 50 26 206 -3 245
-43 59 -64 63 -337 63 l-248 0 12 22 c7 13 42 63 79 113 141 189 469 645 481
666 6 12 12 46 12 76 0 72 -40 138 -103 170 -44 23 -53 23 -354 26 -169 1
-309 1 -310 0z"/>
</g>
</svg>
